<svg xmlns="http://www.w3.org/2000/svg" xmlns:xlink="http://www.w3.org/1999/xlink" width="500" zoomAndPan="magnify" viewBox="0 0 375 374.999991" height="500" preserveAspectRatio="xMidYMid meet" version="1.0"><defs><clipPath id="ad2274d4b1"><path d="M 1.769531 1.027344 L 373 1.027344 L 373 373 L 1.769531 373 Z M 1.769531 1.027344 " clip-rule="nonzero"/></clipPath><clipPath id="bd4c6741bd"><path d="M 187.5 373.230469 C 137.914062 373.230469 91.21875 353.929688 56.179688 318.820312 C 21.070312 283.78125 1.769531 237.085938 1.769531 187.5 C 1.769531 137.914062 21.070312 91.21875 56.179688 56.179688 C 91.21875 21.070312 137.914062 1.769531 187.5 1.769531 C 237.085938 1.769531 283.78125 21.070312 318.820312 56.179688 C 353.929688 91.292969 373.230469 137.914062 373.230469 187.5 C 373.230469 237.085938 353.929688 283.78125 318.820312 318.820312 C 283.78125 353.929688 237.085938 373.230469 187.5 373.230469 Z M 187.5 12.902344 C 140.882812 12.902344 97.007812 31.089844 64.050781 64.050781 C 31.089844 97.007812 12.902344 140.882812 12.902344 187.5 C 12.902344 234.117188 31.089844 277.992188 64.050781 310.949219 C 97.007812 343.910156 140.882812 362.097656 187.5 362.097656 C 234.117188 362.097656 277.992188 343.910156 310.949219 310.949219 C 343.910156 277.992188 362.097656 234.117188 362.097656 187.5 C 362.097656 140.882812 343.910156 97.007812 310.949219 64.050781 C 277.992188 31.089844 234.117188 12.902344 187.5 12.902344 Z M 187.5 12.902344 " clip-rule="nonzero"/></clipPath><clipPath id="b6b4b18145"><path d="M 73 71.246094 L 302 71.246094 L 302 269 L 73 269 Z M 73 71.246094 " clip-rule="nonzero"/></clipPath><clipPath id="9ba8499dc1"><path d="M 169.828125 204.371094 L 302.332031 204.371094 L 302.332031 309 L 169.828125 309 Z M 169.828125 204.371094 " clip-rule="nonzero"/></clipPath></defs><g clip-path="url(#ad2274d4b1)"><g clip-path="url(#bd4c6741bd)"><path fill="#458651" d="M 1.769531 1.769531 L 372.933594 1.769531 L 372.933594 372.933594 L 1.769531 372.933594 Z M 1.769531 1.769531 " fill-opacity="1" fill-rule="nonzero"/></g></g><g clip-path="url(#b6b4b18145)"><path fill="#97b879" d="M 297.445312 163.25 C 291.679688 175.339844 279.792969 186.070312 259.058594 190.273438 L 255.417969 191.011719 L 254.515625 194.601562 C 253.828125 197.304688 253.195312 201.394531 252.605469 206.300781 C 252.023438 206.433594 251.449219 206.566406 250.875 206.699219 C 247.53125 207.503906 244.214844 208.339844 240.980469 209.21875 C 212.75 216.988281 191.945312 228.09375 179.128906 242.234375 C 178.886719 242.511719 178.632812 242.785156 178.40625 243.058594 C 171.570312 250.835938 167.109375 259.492188 165.132812 268.792969 C 157.097656 259.847656 143.820312 254.011719 125.550781 251.402344 C 125.515625 248.042969 125.457031 244.648438 125.367188 241.261719 C 124.902344 223.402344 123.609375 205.667969 120.359375 193.667969 L 119.410156 190.132812 L 115.824219 189.425781 C 95.726562 185.445312 84.039062 175.082031 78.214844 163.25 C 74.125 154.96875 72.917969 145.960938 73.707031 137.917969 C 75.789062 116.691406 92.578125 93.839844 124.507812 93.839844 C 129.167969 93.839844 134.082031 94.339844 139.082031 95.328125 L 142.78125 96.054688 L 144.988281 93.015625 C 155.046875 79.1875 170.613281 71.257812 187.679688 71.257812 C 205.335938 71.257812 221.609375 79.546875 231.214844 93.433594 L 233.457031 96.65625 L 237.292969 95.839844 C 242.191406 94.796875 247.007812 94.265625 251.605469 94.265625 C 281.515625 94.265625 299.410156 116.660156 301.636719 138.785156 C 302.417969 146.527344 301.292969 155.195312 297.445312 163.25 " fill-opacity="1" fill-rule="nonzero"/></g><g clip-path="url(#9ba8499dc1)"><path fill="#458651" d="M 302.328125 204.433594 C 300.015625 213.558594 297.449219 221.90625 294.683594 229.535156 C 294.511719 229.976562 294.367188 230.40625 294.199219 230.84375 C 293.292969 233.261719 292.382812 235.601562 291.441406 237.878906 C 290.1875 240.953125 288.878906 243.90625 287.542969 246.71875 C 284.539062 253.042969 281.382812 258.746094 278.089844 263.894531 C 248.367188 310.519531 208.441406 311.113281 188.542969 307.832031 C 187.386719 307.648438 186.308594 307.445312 185.304688 307.234375 C 184.417969 307.0625 183.570312 306.867188 182.804688 306.679688 C 178.582031 305.683594 176.160156 304.738281 176.160156 304.738281 C 177.929688 302.070312 179.984375 299.230469 182.304688 296.222656 C 188.027344 288.792969 195.40625 280.472656 204.445312 272.007812 C 212.484375 264.472656 221.828125 256.839844 232.550781 249.625 C 233.953125 248.675781 235.371094 247.730469 236.824219 246.808594 C 239.414062 245.136719 242.101562 243.488281 244.851562 241.878906 C 247.277344 240.46875 249.753906 239.078125 252.277344 237.722656 C 252.949219 237.367188 253.621094 237.011719 254.3125 236.65625 C 255.28125 236.15625 256.265625 235.636719 257.273438 235.144531 C 259.679688 233.921875 262.140625 232.730469 264.648438 231.578125 C 261.222656 232.777344 257.871094 234.109375 254.558594 235.546875 C 254.449219 235.585938 254.332031 235.640625 254.226562 235.683594 C 250.984375 237.082031 247.820312 238.585938 244.707031 240.160156 C 244.078125 240.480469 243.449219 240.816406 242.824219 241.148438 C 239.367188 242.957031 235.984375 244.851562 232.703125 246.816406 C 210.25 260.246094 192.144531 276.863281 181.554688 288.175781 C 180.984375 288.78125 180.425781 289.394531 179.898438 289.984375 C 178.953125 291 178.101562 291.976562 177.304688 292.90625 C 175.484375 294.992188 174.058594 296.769531 173.035156 298.152344 L 173.035156 298.164062 L 173.023438 298.171875 C 172.082031 295.550781 171.207031 292.457031 170.617188 289.007812 C 169.667969 283.550781 169.4375 277.191406 170.8125 270.4375 C 172.351562 262.847656 175.957031 254.753906 182.875 246.894531 C 183.074219 246.65625 183.289062 246.421875 183.5 246.1875 C 194.164062 234.417969 212.414062 223.1875 242.550781 214.894531 C 245.664062 214.050781 248.890625 213.226562 252.242188 212.429688 C 266.480469 209.09375 283.050781 206.355469 302.328125 204.433594 " fill-opacity="1" fill-rule="nonzero"/></g><path fill="#458651" d="M 165.710938 304.269531 C 154.492188 286.1875 113.929688 267.734375 113.945312 267.6875 C 138.539062 277.953125 154.367188 284.722656 166.878906 300.589844 C 169.578125 289.9375 171.554688 261.652344 118.648438 256.5 C 109.78125 255.636719 99.378906 255.425781 87.171875 256.054688 C 90.871094 265.324219 94.964844 272.988281 99.273438 279.308594 C 127.632812 320.972656 165.605469 304.523438 165.710938 304.269531 " fill-opacity="1" fill-rule="nonzero"/></svg>